<?xml version="1.0" encoding="UTF-8" standalone="no"?><!DOCTYPE svg PUBLIC "-//W3C//DTD SVG 1.1//EN" "http://www.w3.org/Graphics/SVG/1.1/DTD/svg11.dtd"><!-- Generated by graphviz version 2.40.1 (20161225.0304)
 --><!-- Title: AuthFSMStateTransitions Pages: 1 --><svg xmlns="http://www.w3.org/2000/svg" xmlns:xlink="http://www.w3.org/1999/xlink" width="680pt" height="310pt" viewBox="0.00 0.00 679.63 310.40">
<g id="graph0" class="graph" transform="scale(1 1) rotate(0) translate(4 306.4)">
<title>AuthFSMStateTransitions</title>
<polygon fill="#ffffff" stroke="transparent" points="-4,4 -4,-306.4 675.6251,-306.4 675.6251,4 -4,4"/>
<!-- Login -->
<g id="node1" class="node">
<title>Login</title>
<ellipse fill="none" stroke="#000000" cx="319.8095" cy="-284.4" rx="34.2104" ry="18"/>
<text text-anchor="middle" x="319.8095" y="-280.2" font-family="Times,serif" font-size="14.00" fill="#000000">Login</text>
</g>
<!-- AsyncWorkState.Authenticating -->
<g id="node2" class="node">
<title>AsyncWorkState.Authenticating</title>
<ellipse fill="none" stroke="#000000" cx="136.8095" cy="-195.6" rx="136.6193" ry="18"/>
<text text-anchor="middle" x="136.8095" y="-191.4" font-family="Times,serif" font-size="14.00" fill="#000000">AsyncWorkState.Authenticating</text>
</g>
<!-- Login&#45;&gt;AsyncWorkState.Authenticating -->
<g id="edge1" class="edge">
<title>Login-&gt;AsyncWorkState.Authenticating</title>
<path fill="none" stroke="#000000" d="M285.7908,-282.8892C209.9883,-279.1744 32.4541,-268.4088 14.6671,-248.4 -.1701,-231.7094 13.6142,-220.0952 36.52,-212.1034"/>
<polygon fill="#000000" stroke="#000000" points="37.5821,-215.4385 46.0784,-209.109 35.4894,-208.7587 37.5821,-215.4385"/>
<text text-anchor="middle" x="71.3807" y="-235.8" font-family="Times,serif" font-size="14.00" fill="#000000"> AuthenticationStart</text>
</g>
<!-- Registration -->
<g id="node3" class="node">
<title>Registration</title>
<ellipse fill="none" stroke="#000000" cx="394.8095" cy="-195.6" rx="58.4822" ry="18"/>
<text text-anchor="middle" x="394.8095" y="-191.4" font-family="Times,serif" font-size="14.00" fill="#000000">Registration</text>
</g>
<!-- Login&#45;&gt;Registration -->
<g id="edge2" class="edge">
<title>Login-&gt;Registration</title>
<path fill="none" stroke="#000000" d="M339.2068,-269.2903C346.407,-263.2042 354.3793,-255.8634 360.8095,-248.4 367.6758,-240.4305 374.196,-230.9681 379.6557,-222.2703"/>
<polygon fill="#000000" stroke="#000000" points="382.7351,-223.9423 384.9314,-213.5776 376.7509,-220.3104 382.7351,-223.9423"/>
<text text-anchor="middle" x="416.5525" y="-235.8" font-family="Times,serif" font-size="14.00" fill="#000000"> ToRegistration</text>
</g>
<!-- AsyncWorkState.Authenticating&#45;&gt;Login -->
<g id="edge4" class="edge">
<title>AsyncWorkState.Authenticating-&gt;Login</title>
<path fill="none" stroke="#000000" d="M136.8592,-213.658C137.8789,-225.1497 141.1461,-239.4947 150.4455,-248.4 168.1332,-265.338 231.9147,-275.2984 275.9497,-280.3017"/>
<polygon fill="#000000" stroke="#000000" points="275.8054,-283.8066 286.1257,-281.4105 276.5637,-276.8478 275.8054,-283.8066"/>
<text text-anchor="middle" x="192.9915" y="-235.8" font-family="Times,serif" font-size="14.00" fill="#000000"> BadCredential</text>
</g>
<!-- AsyncWorkState.Authenticating&#45;&gt;Login -->
<g id="edge5" class="edge">
<title>AsyncWorkState.Authenticating-&gt;Login</title>
<path fill="none" stroke="#000000" d="M192.6353,-212.0348C206.8741,-217.3087 221.817,-223.8374 234.8095,-231.6 244.4746,-237.3746 244.5547,-241.931 253.7695,-248.4 263.6062,-255.3055 274.9061,-261.899 285.3456,-267.5121"/>
<polygon fill="#000000" stroke="#000000" points="283.7581,-270.6316 294.2398,-272.1757 287.0088,-264.4322 283.7581,-270.6316"/>
<text text-anchor="middle" x="305.3295" y="-235.8" font-family="Times,serif" font-size="14.00" fill="#000000"> ConnectionFailed</text>
</g>
<!-- UserAuthorized -->
<g id="node4" class="node">
<title>UserAuthorized</title>
<ellipse fill="none" stroke="#000000" cx="86.8095" cy="-106.8" rx="72.9121" ry="18"/>
<text text-anchor="middle" x="86.8095" y="-102.6" font-family="Times,serif" font-size="14.00" fill="#000000">UserAuthorized</text>
</g>
<!-- AsyncWorkState.Authenticating&#45;&gt;UserAuthorized -->
<g id="edge6" class="edge">
<title>AsyncWorkState.Authenticating-&gt;UserAuthorized</title>
<path fill="none" stroke="#000000" d="M126.6913,-177.63C119.5752,-164.9919 109.93,-147.862 101.9075,-133.614"/>
<polygon fill="#000000" stroke="#000000" points="104.8689,-131.7397 96.9127,-124.7433 98.7693,-135.1742 104.8689,-131.7397"/>
<text text-anchor="middle" x="140.7173" y="-147" font-family="Times,serif" font-size="14.00" fill="#000000"> Success</text>
</g>
<!-- Registration&#45;&gt;Login -->
<g id="edge3" class="edge">
<title>Registration-&gt;Login</title>
<path fill="none" stroke="#000000" d="M434.4013,-208.8696C456.1716,-218.3396 476.4343,-232.2305 463.8095,-248.4 451.5242,-264.1347 401.3652,-274.0099 363.6753,-279.3547"/>
<polygon fill="#000000" stroke="#000000" points="362.8575,-275.9334 353.4174,-280.7432 363.7965,-282.8701 362.8575,-275.9334"/>
<text text-anchor="middle" x="493.0574" y="-235.8" font-family="Times,serif" font-size="14.00" fill="#000000"> ToLogin</text>
</g>
<!-- Registration&#45;&gt;Registration -->
<g id="edge13" class="edge">
<title>Registration-&gt;Registration</title>
<path fill="none" stroke="#000000" d="M446.8355,-203.7775C460.6142,-203.3102 471.0501,-200.5844 471.0501,-195.6 471.0501,-191.9396 465.422,-189.4972 456.9749,-188.2729"/>
<polygon fill="#000000" stroke="#000000" points="457.0931,-184.7707 446.8355,-187.4225 456.508,-191.7462 457.0931,-184.7707"/>
<text text-anchor="middle" x="519.8457" y="-191.4" font-family="Times,serif" font-size="14.00" fill="#000000"> ValidationFailed</text>
</g>
<!-- ConfirmationRequested -->
<g id="node5" class="node">
<title>ConfirmationRequested</title>
<ellipse fill="none" stroke="#000000" cx="280.8095" cy="-106.8" rx="103.0906" ry="18"/>
<text text-anchor="middle" x="280.8095" y="-102.6" font-family="Times,serif" font-size="14.00" fill="#000000">ConfirmationRequested</text>
</g>
<!-- Registration&#45;&gt;ConfirmationRequested -->
<g id="edge12" class="edge">
<title>Registration-&gt;ConfirmationRequested</title>
<path fill="none" stroke="#000000" d="M343.2991,-187.0056C300.3473,-179.3147 245.1164,-167.9917 238.4371,-159.6 230.9129,-150.1467 236.2636,-139.7718 245.3626,-130.7396"/>
<polygon fill="#000000" stroke="#000000" points="247.6877,-133.3558 252.9002,-124.1319 243.0733,-128.0921 247.6877,-133.3558"/>
<text text-anchor="middle" x="287.9957" y="-147" font-family="Times,serif" font-size="14.00" fill="#000000"> RegistrationStart</text>
</g>
<!-- ConfirmationRequested&#45;&gt;Registration -->
<g id="edge7" class="edge">
<title>ConfirmationRequested-&gt;Registration</title>
<path fill="none" stroke="#000000" d="M312.5486,-123.97C321.9471,-129.5447 332.0582,-136.046 340.8095,-142.8 351.5138,-151.0613 362.3568,-161.2348 371.4898,-170.4394"/>
<polygon fill="#000000" stroke="#000000" points="369.24,-173.1465 378.7186,-177.88 374.2607,-168.2687 369.24,-173.1465"/>
<text text-anchor="middle" x="380.995" y="-147" font-family="Times,serif" font-size="14.00" fill="#000000"> Cancel</text>
</g>
<!-- AsyncWorkState.Registering -->
<g id="node6" class="node">
<title>AsyncWorkState.Registering</title>
<ellipse fill="none" stroke="#000000" cx="479.8095" cy="-18" rx="123.8756" ry="18"/>
<text text-anchor="middle" x="479.8095" y="-13.8" font-family="Times,serif" font-size="14.00" fill="#000000">AsyncWorkState.Registering</text>
</g>
<!-- ConfirmationRequested&#45;&gt;AsyncWorkState.Registering -->
<g id="edge8" class="edge">
<title>ConfirmationRequested-&gt;AsyncWorkState.Registering</title>
<path fill="none" stroke="#000000" d="M301.6256,-89.0286C315.839,-77.6579 335.5324,-63.3401 354.8705,-54 369.5994,-46.8862 386,-40.9152 401.946,-36.0102"/>
<polygon fill="#000000" stroke="#000000" points="403.2022,-39.2885 411.7969,-33.0931 401.2146,-32.5766 403.2022,-39.2885"/>
<text text-anchor="middle" x="381.279" y="-58.2" font-family="Times,serif" font-size="14.00" fill="#000000"> Confirm</text>
</g>
<!-- AsyncWorkState.Registering&#45;&gt;Login -->
<g id="edge11" class="edge">
<title>AsyncWorkState.Registering-&gt;Login</title>
<path fill="none" stroke="#000000" d="M549.2812,-33.0489C579.4524,-43.4034 611.9272,-60.5854 629.8095,-88.8 638.3748,-102.3143 634.0626,-109.3756 629.8095,-124.8 610.4959,-194.8442 590.4454,-221.8558 522.8095,-248.4 470.5926,-268.8929 406.2304,-277.7867 364.1625,-281.6028"/>
<polygon fill="#000000" stroke="#000000" points="363.6369,-278.1347 353.9685,-282.4675 364.2286,-285.1096 363.6369,-278.1347"/>
<text text-anchor="middle" x="647.7173" y="-147" font-family="Times,serif" font-size="14.00" fill="#000000"> Success</text>
</g>
<!-- AsyncWorkState.Registering&#45;&gt;Registration -->
<g id="edge9" class="edge">
<title>AsyncWorkState.Registering-&gt;Registration</title>
<path fill="none" stroke="#000000" d="M466.3826,-35.9295C456.3913,-49.8384 442.9037,-69.8742 433.4455,-88.8 426.3721,-102.954 412.9819,-141.3385 403.9757,-168.0082"/>
<polygon fill="#000000" stroke="#000000" points="400.6265,-166.9871 400.7609,-177.5811 407.2624,-169.2156 400.6265,-166.9871"/>
<text text-anchor="middle" x="474.9915" y="-102.6" font-family="Times,serif" font-size="14.00" fill="#000000"> BadCredential</text>
</g>
<!-- AsyncWorkState.Registering&#45;&gt;Registration -->
<g id="edge10" class="edge">
<title>AsyncWorkState.Registering-&gt;Registration</title>
<path fill="none" stroke="#000000" d="M495.1669,-35.8681C512.0412,-57.8011 534.6553,-95.6663 517.8095,-124.8 502.541,-151.2059 473.276,-168.6297 447.1219,-179.5834"/>
<polygon fill="#000000" stroke="#000000" points="445.6674,-176.3949 437.6586,-183.3309 448.2448,-182.9031 445.6674,-176.3949"/>
<text text-anchor="middle" x="574.3295" y="-102.6" font-family="Times,serif" font-size="14.00" fill="#000000"> ConnectionFailed</text>
</g>
</g>
</svg>